<svg xmlns="http://www.w3.org/2000/svg" viewBox="0 0 237.36 375.23" data-target="svg_dtarget0" data-name="svgcls" class="svgcls nohover" style="width: 553px; height: 812px; position: absolute; z-index: 0; display: block; cursor: default; fill: rgb(63, 63, 63);"><g id="Layer_2" data-name="Layer 2"><g id="Layer_43" data-name="Layer 43"><path d="M202.52,79.21a118.43,118.43,0,0,0-55.59-31.29c5.9-26.71-13.59-46.39-13.85-46.64a4.45,4.45,0,0,0-6.25,6.35c.86.85,16.43,16.58,11.38,38.5h0a120.6,120.6,0,0,0-20.09-1.67h-2.87A115.39,115.39,0,0,0,0,159.72V353.25c.06,3.8,1.65,9.32,8.84,14,11.45,7.51,31.89,9.39,44.63,4.1a17.5,17.5,0,0,0,10.65-16.53l-.65-26.67a11.59,11.59,0,0,1,3.69-8.79,10.56,10.56,0,0,1,8.18-2.87l.28,0c5.24.6,9.38,5.51,9.39,11.18l0,14.14A20.88,20.88,0,0,0,100.12,362c13,3.85,31.72,3.54,42.54-.71a15.12,15.12,0,0,0,9.55-14.23l-.05-2.56a10.27,10.27,0,0,1,8-10.35,15.2,15.2,0,0,1,7.25.26,10.24,10.24,0,0,1,7.1,9.66l.06,2.22A29.67,29.67,0,0,0,188,370.41,29,29,0,0,0,215.2,373c14.7-6.05,22.16-13,22.16-20.78V163.14A117.73,117.73,0,0,0,202.52,79.21Zm25.92,273c0,2.63-4.35,7.48-16.63,12.54a20.17,20.17,0,0,1-18.92-1.81,20.56,20.56,0,0,1-9.44-16.88l0-2.23a19.24,19.24,0,0,0-13.57-18,24.15,24.15,0,0,0-6.61-.93,24.93,24.93,0,0,0-4.93.51,19.2,19.2,0,0,0-15,19.24l.05,2.55a6.14,6.14,0,0,1-3.9,5.77c-9.07,3.57-25.55,3.77-36.76.46A12,12,0,0,1,94,341.87l0-14.15c0-10.28-7.46-18.88-17.32-20l-.46-.05a19.55,19.55,0,0,0-15.07,5.24,20.6,20.6,0,0,0-6.52,15.52l.65,26.67a8.52,8.52,0,0,1-5.14,8.08c-10,4.15-27.35,2.57-36.33-3.32-3.16-2.07-4.78-4.34-4.82-6.72V159.72A106.46,106.46,0,0,1,115.25,53.38h2.87a112,112,0,0,1,17.14,1.31,57.15,57.15,0,0,1-7.49,11.86c-6.59,8.18-10.92,16-13,23.36h0A77.26,77.26,0,0,0,42.1,167v26.63a29,29,0,0,0,1.6,9.59c5.59,16.27,26.33,21.2,39.31,9.9l24.78-21.55a18.62,18.62,0,0,1,24.68.22l23,20.77c12.92,11.65,34.16,6.88,39.65-9.63a29.47,29.47,0,0,0,1.51-9.3V167a77.26,77.26,0,0,0-72.52-77.11q3-8.27,10.6-17.79a64.28,64.28,0,0,0,9.52-15.7,109.81,109.81,0,0,1,84.21,106.7ZM71.75,150H64.88a4.46,4.46,0,1,1,0-8.92h6.87a4.46,4.46,0,0,0,4.46-4.46v-6.87a4.46,4.46,0,0,1,8.91,0v6.87A4.46,4.46,0,0,0,89.58,141h6.87a4.46,4.46,0,0,1,0,8.92H89.58a4.46,4.46,0,0,0-4.46,4.45v6.87a4.46,4.46,0,1,1-8.91,0v-6.87A4.46,4.46,0,0,0,71.75,150Zm75-3.35A15.42,15.42,0,1,1,162.2,162,15.4,15.4,0,0,1,146.79,146.61Z" style="fill: rgb(63, 63, 63); display: block;" class=""/></g></g></svg>